<svg version="1.0" id="Layer_1" xmlns="http://www.w3.org/2000/svg" xmlns:xlink="http://www.w3.org/1999/xlink" width="33px" height="33px" viewBox="0 0 2.64 2.64" enable-background="new 0 0 64 64" xml:space="preserve"><path fill="none" stroke="#000000" stroke-width="0.0825" stroke-miterlimit="10" points="46,1 6,1 26,21 " d="M1.898 0.041L0.247 0.041L1.073 0.866Z"/><g><g><path fill="none" stroke="#000000" stroke-width="0.0825" stroke-miterlimit="10" points="7.414,61.586 6,63 8,63 		" d="M0.306 2.54L0.247 2.599L0.33 2.599"/><path fill="none" stroke="#000000" stroke-width="0.0825" stroke-miterlimit="10" stroke-dasharray="4,2" x1="10" y1="63" x2="43" y2="63" d="M0.413 2.599L1.774 2.599"/><path fill="none" stroke="#000000" stroke-width="0.0825" stroke-miterlimit="10" points="44,63 46,63 44.586,61.586 		" d="M1.815 2.599L1.898 2.599L1.839 2.54"/><path fill="none" stroke="#000000" stroke-width="0.0825" stroke-miterlimit="10" stroke-dasharray="3.736,1.868" x1="43.265" y1="60.265" x2="28.075" y2="45.075" d="M1.785 2.486L1.158 1.859"/><path fill="none" stroke="#000000" stroke-width="0.0825" stroke-miterlimit="10" points="27.414,44.414 26,43 24.586,44.414 		" d="M1.131 1.832L1.073 1.774L1.014 1.832"/><path fill="none" stroke="#000000" stroke-width="0.0825" stroke-miterlimit="10" stroke-dasharray="3.736,1.868" x1="23.265" y1="45.735" x2="8.075" y2="60.925" d="M0.96 1.887L0.333 2.513"/></g></g><g><g><path fill="none" stroke="#000000" stroke-width="0.0825" stroke-miterlimit="10" x1="2" y1="32" x2="4" y2="32" d="M0.083 1.32L0.165 1.32"/><path fill="none" stroke="#000000" stroke-width="0.0825" stroke-miterlimit="10" stroke-dasharray="4,2" x1="6" y1="32" x2="47" y2="32" d="M0.247 1.32L1.939 1.32"/><path fill="none" stroke="#000000" stroke-width="0.0825" stroke-miterlimit="10" x1="48" y1="32" x2="50" y2="32" d="M1.98 1.32L2.063 1.32"/></g></g><path fill="none" stroke="#000000" stroke-width="0.0825" stroke-linejoin="bevel" stroke-miterlimit="10" points="51,46 51,57 
	62,57 " d="M2.104 1.898L2.104 2.351L2.558 2.351"/><path fill="none" stroke="#000000" stroke-width="0.0825" stroke-miterlimit="10" d="M2.104 2.351c0.325 -0.232 0.495 -0.602 0.495 -1.031 0 -0.429 -0.17 -0.799 -0.495 -1.031"/></svg>